<?xml version="1.0" encoding="utf-8"?>
<!-- Generator: Adobe Illustrator 23.0.4, SVG Export Plug-In . SVG Version: 6.00 Build 0)  -->
<svg version="1.1" id="Layer_1" xmlns="http://www.w3.org/2000/svg" xmlns:xlink="http://www.w3.org/1999/xlink" x="0px" y="0px"
	 viewBox="0 0 360 360" style="enable-background:new 0 0 360 360;" xml:space="preserve">
<style type="text/css">
	.st0{fill:#D02027;}
	.st1{fill:#931A1D;}
	.st2{fill:#FFFFFF;}
</style>
<g>
	<polygon class="st0" points="147.12,270.3 154.1,270.3 153.49,257.79 	"/>
	<polygon class="st0" points="132.04,185.43 131.43,172.91 125.05,185.43 	"/>
	<path class="st0" d="M184.8,186.33c-0.81-0.64-2.06-0.96-3.71-0.96h-5.92l-1.91,8.53h6.18c2.07,0,3.7-0.47,4.85-1.4
		c1.14-0.93,1.7-2.11,1.7-3.62C185.97,187.79,185.59,186.96,184.8,186.33z"/>
	<path class="st0" d="M138.46,92.61c0.6-0.59,1.07-1.36,1.39-2.26c0.33-0.92,0.5-1.85,0.5-2.76c0-1.37-0.41-2.41-1.26-3.17
		c-0.91-0.95-2.5-1.42-4.73-1.42h-4.13l-2.8,11.78h4.24C134.64,94.77,136.93,94.05,138.46,92.61z"/>
	<path class="st0" d="M188.45,168.23c-0.76-0.61-2.03-0.92-3.78-0.92h-5.17l-1.84,8.12h5.42c2.16,0,3.8-0.44,4.88-1.3
		c1.07-0.86,1.59-2.01,1.59-3.52C189.56,169.61,189.2,168.83,188.45,168.23z"/>
	<path class="st0" d="M302.1,57.9C269.48,25.29,226.12,7.33,180,7.33c-46.12,0-89.48,17.96-122.1,50.57S7.33,133.88,7.33,180
		c0,46.12,17.96,89.48,50.57,122.1c32.61,32.61,75.97,50.57,122.1,50.57c46.12,0,89.48-17.96,122.1-50.57
		c32.61-32.61,50.57-75.97,50.57-122.1C352.67,133.88,334.71,90.52,302.1,57.9z M218.13,71.26h13.31c4.2,0,7.7,0.52,10.4,1.54
		c2.7,1.02,4.9,2.37,6.54,4.01c1.77,1.73,3.08,3.81,3.88,6.17c0.79,2.35,1.19,5.04,1.19,8.01c0,1.75-0.16,3.61-0.49,5.51
		c-0.33,1.9-0.84,3.81-1.53,5.68c-0.69,1.87-1.59,3.7-2.65,5.44c-1.07,1.74-2.34,3.35-3.77,4.79c-2.6,2.6-5.73,4.58-9.3,5.87
		c-3.56,1.3-7.92,1.95-12.94,1.95h-16.58L218.13,71.26z M242.9,193.08l-3.08,12.01h-31.89l11.96-48.97h13.41l-0.11,0.44l-8.86,36.52
		H242.9z M170.83,71.26h33.75L201.65,83h-20.47l-1.63,7.09h18.42l-2.8,11.05h-18.41L175,108.5h20.9l-3.01,11.74h-34.03L170.83,71.26
		z M119.74,71.26h14.96c3.74,0,6.91,0.4,9.41,1.19c2.53,0.8,4.59,1.99,6.14,3.53c2.54,2.54,3.83,5.94,3.83,10.11
		c0,5.13-1.59,9.36-4.72,12.59c-0.89,0.89-1.99,1.76-3.27,2.6c-1.21,0.79-2.76,1.51-4.6,2.13l6.12,16.82h-14.54l-5.03-14.69h-3.4
		l-3.45,14.69h-13.41L119.74,71.26z M147.28,205.09h-13.82l-0.62-8.83h-14.01l-4.83,8.83H99.66l29.17-49.25h13.34L147.28,205.09z
		 M66.59,205.09l8.96-36.96H63.69l3.08-12.01h37.06l-3.08,12.01H88.97l-8.96,36.96H66.59z M102.07,289.97H88.66l8.96-36.96H85.76
		L88.83,241h37.06l-3.08,12.01h-11.79L102.07,289.97z M155.52,289.97l-0.62-8.83h-14.01l-4.83,8.83h-14.34l29.17-49.25h13.34
		l5.11,49.25H155.52z M157.33,205.09l11.96-48.97h16.69c3.05,0,5.66,0.32,7.76,0.95c2.1,0.63,3.85,1.49,5.18,2.54
		c1.35,1.07,2.34,2.34,2.93,3.8c0.59,1.44,0.89,2.98,0.89,4.58c0,3.34-0.95,6.12-2.84,8.27c-1.69,1.93-3.9,3.37-6.58,4.28
		c1.59,0.82,2.93,1.92,3.98,3.27c1.23,1.6,1.86,3.63,1.86,6.04c0,4.65-1.83,8.39-5.45,11.14c-3.59,2.72-8.9,4.11-15.8,4.11H157.33z
		 M211.35,289.97h-31.89L191.43,241h13.41l-0.11,0.44l-8.86,36.52h18.55L211.35,289.97z M264.79,289.97h-14.33l-4.8-17.58
		l-5.85,6.17l-2.73,11.42h-13.41L235.63,241h13.41l-4.3,17.6l14.93-17.6h16.41l-19.71,21.61L264.79,289.97z M294.92,167.86h-20.47
		l-1.63,7.09h18.42l-2.8,11.05h-18.41l-1.76,7.36h20.9l-3.01,11.74h-34.03l11.96-48.97h33.76L294.92,167.86z"/>
	<path class="st0" d="M230.5,107.27c1.78-0.62,3.34-1.57,4.63-2.82c0.75-0.75,1.43-1.65,2.01-2.68c0.58-1.04,1.07-2.13,1.46-3.25
		c0.38-1.13,0.68-2.27,0.88-3.4c0.2-1.12,0.3-2.22,0.3-3.25c0-1.56-0.2-2.87-0.6-3.91c-0.39-1.03-0.92-1.88-1.58-2.53
		c-0.65-0.65-1.53-1.18-2.63-1.57c-1.11-0.4-2.55-0.6-4.29-0.6h-2.2l-5.97,24.95h2.04C226.7,108.22,228.71,107.9,230.5,107.27z"/>
</g>
</svg>
